<svg width="128" height="128" viewBox="0 0 128 128" fill="none" xmlns="http://www.w3.org/2000/svg">
  <rect width="128" height="128" rx="30" fill="#ffc100"></rect>
  <g stroke="#1b1b18" stroke-width="6" stroke-linejoin="round" stroke-linecap="round">
    <path d="M54 30c0-5 4-9 10-9s10 4 10 9" fill="none"></path>
    <path d="M48 44c-6 4-9 11-9 20M80 44c6 4 9 11 9 20" fill="none"></path>
    <rect x="34" y="34" width="60" height="72" rx="18" fill="#1b1b18"></rect>
    <path d="M34 56c0-12 8-22 30-22s30 10 30 22v4H34Z" fill="#ffc100"></path>
    <rect x="58" y="50" width="12" height="9" rx="2.5" fill="#ffc100"></rect>
    <path d="M48 78h32v20a8 8 0 0 1-8 8H56a8 8 0 0 1-8-8V78Z" fill="#ffc100"></path>
    <line x1="58" y1="92" x2="70" y2="92"></line>
  </g>
</svg>
